# xmcd CD database file
#
# Track frame offsets:
#	150
#	34494
#	113305
#	250406
#
# Disc length: 4595 seconds
#
# Revision: 0
# Processed by: cddbd v1.5.1PL0 Copyright (c) Steve Scherf et al.
# Submitted via: CDex 1.51
#
DISCID=2c11f104
DTITLE=Charles Mingus - Live in Stuttgart [CD1]
DYEAR=1964
DGENRE=Jazz
TTITLE0=These Foolish Things
TTITLE1=Orange Was the Color Of Her Dress, Then Blue Silk
TTITLE2=So Long Eric
TTITLE3=Peggy's Blue Skylight
EXTD=YEAR: 1964
EXTT0=
EXTT1=
EXTT2=
EXTT3=
PLAYORDER=
